HIERARCHY
ROOT root
{
	OFFSET	0	13.1	24.9
	CHANNELS 6  Xposition Yposition Zposition Xrotation Yrotation Zrotation
	JOINT spine_1
	{
		OFFSET	0	9.99999	0
		CHANNELS 3  Xrotation Yrotation Zrotation
		JOINT spine_2
		{
			OFFSET	0	112	-10
			CHANNELS 3  Xrotation Yrotation Zrotation
			JOINT spine_3
			{
				OFFSET	0	206.5	19.3
				CHANNELS 3  Xrotation Yrotation Zrotation
				JOINT spine_4
				{
					OFFSET	0	110.4	14.6
					CHANNELS 3  Xrotation Yrotation Zrotation
					JOINT neck_1
					{
						OFFSET	0	71.8	-50.3
						CHANNELS 3  Xrotation Yrotation Zrotation
						JOINT neck_2
						{
							OFFSET	0	86.2	-25.8
							CHANNELS 3  Xrotation Yrotation Zrotation
							JOINT head_ee
							{
								OFFSET	0	179.8	-8.7
								CHANNELS 3  Xrotation Yrotation Zrotation
								End Site
								{
									OFFSET	1	0	0
								}
							}
						}
					}
					JOINT left_clavicle
					{
						OFFSET	-43.2	22.4	-70.8
						CHANNELS 3  Xrotation Yrotation Zrotation
						JOINT left_shoulder
						{
							OFFSET	-93.9	-5.79999	48.7
							CHANNELS 3  Xrotation Yrotation Zrotation
							JOINT left_elbow
							{
								OFFSET	-291.4	-30.8	15.2
								CHANNELS 3  Xrotation Yrotation Zrotation
								JOINT left_lowarm_twist
								{
									OFFSET	-110.7	-3.89999	13.6
									CHANNELS 3  Xrotation Yrotation Zrotation
									JOINT left_hand
									{
										OFFSET	-110.7	-3.89999	13.6
										CHANNELS 3  Xrotation Yrotation Zrotation
										JOINT left_ee
										{
											OFFSET	-80.8	-5.10001	12.1
											CHANNELS 3  Xrotation Yrotation Zrotation
											End Site
											{
												OFFSET	1	0	0
											}
										}
									}
								}
							}
						}
					}
					JOINT right_clavicle
					{
						OFFSET	43.2	22.4	-70.8
						CHANNELS 3  Xrotation Yrotation Zrotation
						JOINT right_shoulder
						{
							OFFSET	93.9	-5.79999	48.7
							CHANNELS 3  Xrotation Yrotation Zrotation
							JOINT right_elbow
							{
								OFFSET	291.4	-30.8	15.2
								CHANNELS 3  Xrotation Yrotation Zrotation
								JOINT right_lowarm_twist
								{
									OFFSET	110.7	-3.89999	13.6
									CHANNELS 3  Xrotation Yrotation Zrotation
									JOINT right_hand
									{
										OFFSET	110.7	-3.89999	13.6
										CHANNELS 3  Xrotation Yrotation Zrotation
										JOINT right_ee
										{
											OFFSET	80.8	-5.10001	12.1
											CHANNELS 3  Xrotation Yrotation Zrotation
											End Site
											{
												OFFSET	1	0	0
											}
										}
									}
								}
							}
						}
					}
				}
			}
		}
	}
	JOINT left_hip
	{
		OFFSET	-82.8	-127.5	0.300001
		CHANNELS 3  Xrotation Yrotation Zrotation
		JOINT left_knee
		{
			OFFSET	-28.2	-396.7	2.2
			CHANNELS 3  Xrotation Yrotation Zrotation
			JOINT left_ankle
			{
				OFFSET	-11.7	-411.3	35.4
				CHANNELS 3  Xrotation Yrotation Zrotation
				JOINT left_toes
				{
					OFFSET	0	-60	-88.6
					CHANNELS 3  Xrotation Yrotation Zrotation
					JOINT left_foot_ee
					{
						OFFSET	-22.5	-16.5	-42.2
						CHANNELS 3  Xrotation Yrotation Zrotation
						End Site
						{
							OFFSET	1	0	0
						}
					}
				}
			}
		}
	}
	JOINT right_hip
	{
		OFFSET	82.8	-127.5	0.300001
		CHANNELS 3  Xrotation Yrotation Zrotation
		JOINT right_knee
		{
			OFFSET	28.2	-396.7	2.2
			CHANNELS 3  Xrotation Yrotation Zrotation
			JOINT right_ankle
			{
				OFFSET	11.7	-411.3	35.4
				CHANNELS 3  Xrotation Yrotation Zrotation
				JOINT right_toes
				{
					OFFSET	0	-60	-88.6
					CHANNELS 3  Xrotation Yrotation Zrotation
					JOINT right_foot_ee
					{
						OFFSET	22.5	-16.5	-42.2
						CHANNELS 3  Xrotation Yrotation Zrotation
						End Site
						{
							OFFSET	1	0	0
						}
					}
				}
			}
		}
	}
}
MOTION
Frames: 5
Frame Time: 0.02
861.63 505.091 -501.231 47.1915 -78.7982 45.457 -10.886 -0.0840306 0.0917961 -10.886 -0.0897015 0.086263 -10.8862 -0.116291 0.044318 -10.8862 -0.107832 0.0621278 4.39089 6.2121 2.76301 4.46423 8.31052 3.47696 -0.0 0.0 -0.0 8.81925 22.4885 15.2303 -11.1255 -17.9532 67.0137 0.187187 -5.29786 0.00866034 -18.9851 -1.04069 2.18208 3.00835 25.9087 28.3809 -0.0 0.0 -0.0 12.2902 14.3563 -24.8825 27.6533 19.1671 -50.3041 2.85863 54.7608 -1.48076 36.4732 0.178643 4.57806 7.15115 -22.1078 -66.7546 0.0 0.0 0.0 55.0279 -25.4161 10.2034 -59.8946 -2.18861 8.51382 9.37319 23.3687 -1.3851 -8.12247 0.0 0.0 -0.0 0.0 -0.0 -32.244 5.56079 -3.0366 -29.2254 -0.0729566 -4.43607 11.5998 -7.97338 1.63948 -36.4233 0.0 0.0 0.0 0.0 0.0 
885.51 513.065 -507.71 46.9232 -79.6173 45.2017 -10.875 -0.138245 0.296921 -10.875 -0.156859 0.287522 -10.8758 -0.256765 0.203337 -10.8758 -0.221429 0.241336 3.64675 6.41673 5.85659 3.74165 6.07881 6.98575 -0.0 0.0 -0.0 8.91033 22.94 15.299 -10.1749 -18.1414 67.3601 0.178457 -5.05206 0.00787282 -20.333 -1.14132 2.32234 2.18531 26.4024 23.2568 -0.0 0.0 -0.0 12.0937 17.1003 -24.3241 27.4262 16.2434 -50.6734 2.83642 54.5501 -1.46264 37.6138 0.231002 4.71418 7.21773 -23.1951 -68.0529 0.0 0.0 0.0 54.0442 -23.5684 9.37682 -61.2663 -2.33826 8.66345 8.42297 21.1796 -1.23622 -6.1857 0.0 0.0 -0.0 0.0 -0.0 -33.0881 2.85259 -1.17416 -26.7957 -0.1534 -4.07189 4.43946 -6.66352 0.642421 -37.9033 0.0 0.0 0.0 0.0 0.0 
908.153 512.823 -513.972 46.4083 -79.8916 44.7836 -10.6759 -0.20551 0.433591 -10.6759 -0.232683 0.419635 -10.6776 -0.377175 0.296605 -10.6776 -0.325599 0.35245 3.9721 5.84703 5.89782 4.06128 5.00709 7.00438 -0.0 0.0 -0.0 8.6466 23.4658 14.8309 -8.75381 -18.3547 68.0284 0.186665 -5.28316 0.00861222 -20.3111 -1.13966 2.32008 1.80986 23.9822 20.3357 -0.0 0.0 -0.0 12.3184 20.4287 -24.6353 29.7532 12.0049 -51.3786 2.68489 53.0522 -1.34035 35.5006 0.13615 4.46121 7.27451 -26.142 -69.0508 0.0 0.0 0.0 53.6052 -23.4266 8.61171 -62.777 -2.5072 8.8241 6.46838 16.5961 -0.940383 2.73106 -0.0 -0.0 -0.0 0.0 -0.0 -35.7629 3.60424 -1.14235 -21.6765 -0.271951 -3.29551 -1.72879 -6.35466 -0.254171 -38.5552 0.0 0.0 0.0 0.0 0.0 
934.918 521.683 -523.577 50.2686 -80.6422 48.2877 -10.5293 -0.257932 0.581884 -10.5292 -0.294435 0.564293 -10.5321 -0.489152 0.407246 -10.5321 -0.418697 0.479387 3.25432 6.57488 6.67332 3.36995 5.70927 7.90473 -0.0 0.0 -0.0 8.82765 23.3378 15.1162 -7.7667 -17.9789 67.8359 0.208757 -5.90424 0.0107655 -19.974 -1.1142 2.28521 0.860114 22.0804 13.9799 -0.0 0.0 -0.0 12.3874 20.9112 -24.7576 29.6558 10.433 -52.2304 2.42895 50.2624 -1.13955 37.4198 0.221906 4.6911 7.37573 -24.4636 -71.365 0.0 0.0 0.0 53.0984 -22.1766 8.65978 -60.8442 -2.29183 8.61779 -4.43157 18.0142 0.663719 7.61295 -0.0 -0.0 -0.0 0.0 -0.0 -35.7529 4.85021 -0.517793 -20.3418 -0.291419 -3.09163 -13.4848 -8.80111 -2.01853 -38.9084 0.0 0.0 0.0 0.0 0.0 
960.648 527.196 -534.149 56.3353 -81.6148 54.7434 -10.4011 0.0563156 0.721296 -10.4008 0.0103047 0.723417 -10.3999 -0.267714 0.67214 -10.4005 -0.158205 0.705983 3.97684 6.02003 5.38556 4.05792 5.75132 6.43615 -0.0 0.0 -0.0 8.98628 23.4312 15.336 -7.1347 -17.6802 68.1868 0.256919 -7.25321 0.0162838 -21.0627 -1.19717 2.39728 0.16624 20.4668 9.24517 -0.0 0.0 -0.0 12.0959 20.0306 -24.1521 29.1688 9.76764 -54.0172 2.10178 46.1496 -0.895474 36.137 0.163729 4.53775 7.36953 -25.2597 -71.1763 0.0 0.0 0.0 52.0697 -20.6749 8.25434 -63.2411 -2.55995 8.87256 -3.64143 19.2119 0.5466 10.9454 -0.0 -0.0 -0.0 0.0 -0.0 -36.2919 5.76099 0.545155 -19.6927 -0.299168 -2.99235 -18.1423 -9.12666 -2.72532 -39.7032 0.0 0.0 0.0 0.0 0.0 
